<svg xmlns="http://www.w3.org/2000/svg" version="1.1" xmlns:xlink="http://www.w3.org/1999/xlink" xmlns:svgjs="http://svgjs.dev/svgjs" width="1000" height="164" viewBox="0 0 1000 164"><g transform="matrix(1,0,0,1,-0.6060606060606233,-0.08079296286067006)"><svg viewBox="0 0 396 65" data-background-color="#ffffff" preserveAspectRatio="xMidYMid meet" height="164" width="1000" xmlns="http://www.w3.org/2000/svg" xmlns:xlink="http://www.w3.org/1999/xlink"><defs></defs><g id="tight-bounds" transform="matrix(1,0,0,1,0.2400000000000091,0.032021601133806143)"><svg viewBox="0 0 395.52 64.93595679773242" height="64.93595679773242" width="395.52"><g><svg viewBox="0 0 482.9599597509122 79.29173513708491" height="64.93595679773242" width="395.52"><g transform="matrix(1,0,0,1,87.43995975091224,22.388237369311422)"><svg viewBox="0 0 395.52 34.51526039846207" height="34.51526039846207" width="395.52"><g><svg viewBox="0 0 395.52 34.51526039846207" height="34.51526039846207" width="395.52"><g><svg viewBox="0 0 395.52 34.51526039846207" height="34.51526039846207" width="395.52"><g transform="matrix(1,0,0,1,0,0)"><svg width="395.52" viewBox="3.6500000953674316 -37.150001525878906 429.1100158691406 37.45000076293945" height="34.51526039846207" data-palette-color="#6d285f"><path d="M8.7 0L3.65 0 3.65-36.85 18.6-36.85Q20.25-36.85 22-36.43 23.75-36 25.23-34.77 26.7-33.55 27.6-31.15 28.5-28.75 28.5-24.8L28.5-24.8Q28.5-20.85 27.58-18.4 26.65-15.95 25.15-14.65 23.65-13.35 21.9-12.9 20.15-12.45 18.55-12.45L18.55-12.45Q17.75-12.45 16.38-12.5 15-12.55 13.5-12.65 12-12.75 10.7-12.85 9.4-12.95 8.7-13.05L8.7-13.05 8.7 0ZM8.7-32.35L8.7-16.95 17.85-16.95Q19.45-16.95 20.73-17.68 22-18.4 22.73-20.08 23.45-21.75 23.45-24.75L23.45-24.75Q23.45-27.7 22.73-29.35 22-31 20.8-31.68 19.6-32.35 18.15-32.35L18.15-32.35 8.7-32.35ZM55.85 0L41.9 0Q39.55 0 37.77-0.73 36-1.45 35.05-3.18 34.1-4.9 34.1-7.8L34.1-7.8 34.1-36.85 39.15-36.85 39.15-8.55Q39.15-6.95 39.7-6.08 40.25-5.2 41.15-4.9 42.05-4.6 43.1-4.6L43.1-4.6 55.85-4.6 55.85 0ZM63.75 0L58.55 0 70.84-36.85 77.25-36.85 89.55 0 84.3 0 81.05-9.65 66.95-9.65 63.75 0ZM74-32.45L68.15-14.2 79.8-14.2 74-32.45ZM106.34 0.3L106.34 0.3Q103.04 0.3 100.59-0.45 98.14-1.2 96.49-3.18 94.84-5.15 94.04-8.88 93.24-12.6 93.24-18.55L93.24-18.55Q93.24-24.15 94.07-27.8 94.89-31.45 96.57-33.5 98.24-35.55 100.74-36.35 103.24-37.15 106.54-37.15L106.54-37.15Q108.39-37.15 110.37-36.95 112.34-36.75 114.17-36.43 115.99-36.1 117.44-35.7L117.44-35.7 117.44-31.9Q116.54-32.05 114.99-32.23 113.44-32.4 111.49-32.52 109.54-32.65 107.44-32.65L107.44-32.65Q104.94-32.65 103.19-32.08 101.44-31.5 100.34-29.98 99.24-28.45 98.74-25.68 98.24-22.9 98.24-18.5L98.24-18.5Q98.24-14.05 98.72-11.23 99.19-8.4 100.24-6.88 101.29-5.35 103.04-4.78 104.79-4.2 107.39-4.2L107.39-4.2Q111.14-4.2 113.54-4.4 115.94-4.6 117.44-4.8L117.44-4.8 117.44-0.95Q115.94-0.6 114.14-0.3 112.34 0 110.37 0.15 108.39 0.3 106.34 0.3ZM130.94 0.2L130.94 0.2Q129.69 0.2 128.29-0.03 126.89-0.25 125.62-0.98 124.34-1.7 123.54-3.2 122.74-4.7 122.74-7.25L122.74-7.25 122.74-29.15Q122.74-31.35 123.42-32.85 124.09-34.35 125.19-35.23 126.29-36.1 127.67-36.48 129.04-36.85 130.39-36.85L130.39-36.85Q133.64-36.8 136.37-36.73 139.09-36.65 141.44-36.55 143.79-36.45 145.94-36.35L145.94-36.35 145.94-32.2 131.74-32.2Q129.89-32.2 128.84-31.25 127.79-30.3 127.79-28.25L127.79-28.25 127.79-20.6 143.69-20.3 143.69-16.4 127.79-16.05 127.79-8.5Q127.79-6.8 128.37-5.95 128.94-5.1 129.87-4.8 130.79-4.5 131.84-4.5L131.84-4.5 145.94-4.5 145.94-0.35Q143.64-0.2 141.09-0.08 138.54 0.05 135.97 0.13 133.39 0.2 130.94 0.2ZM162.89 0.3L162.89 0.3Q161.69 0.3 160.16 0.23 158.64 0.15 157.06 0 155.49-0.15 154.06-0.3 152.64-0.45 151.64-0.7L151.64-0.7 151.64-4.6Q152.94-4.5 154.76-4.4 156.59-4.3 158.66-4.25 160.74-4.2 162.69-4.2L162.69-4.2Q164.84-4.2 166.51-4.6 168.19-5 169.16-6.1 170.14-7.2 170.14-9.2L170.14-9.2 170.14-11.35Q170.14-13.6 168.91-14.8 167.69-16 165.19-16L165.19-16 161.44-16Q156.64-16 154.01-18.1 151.39-20.2 151.39-25.3L151.39-25.3 151.39-27.3Q151.39-32.6 154.26-34.88 157.14-37.15 162.44-37.15L162.44-37.15Q164.19-37.15 166.19-36.98 168.19-36.8 170.09-36.55 171.99-36.3 173.24-36.05L173.24-36.05 173.24-32.15Q170.99-32.3 168.21-32.48 165.44-32.65 162.99-32.65L162.99-32.65Q160.89-32.65 159.36-32.18 157.84-31.7 157.01-30.5 156.19-29.3 156.19-27.1L156.19-27.1 156.19-25.6Q156.19-22.9 157.64-21.85 159.09-20.8 161.69-20.8L161.69-20.8 165.74-20.8Q168.89-20.8 170.91-19.65 172.94-18.5 173.94-16.5 174.94-14.5 174.94-11.95L174.94-11.95 174.94-9.35Q174.94-5.45 173.34-3.35 171.74-1.25 169.04-0.48 166.34 0.3 162.89 0.3ZM202.83 0.2L202.83 0.2Q201.58 0.2 200.18-0.03 198.78-0.25 197.51-0.98 196.23-1.7 195.43-3.2 194.63-4.7 194.63-7.25L194.63-7.25 194.63-29.15Q194.63-31.35 195.31-32.85 195.98-34.35 197.08-35.23 198.18-36.1 199.56-36.48 200.93-36.85 202.28-36.85L202.28-36.85Q205.53-36.8 208.26-36.73 210.98-36.65 213.33-36.55 215.68-36.45 217.83-36.35L217.83-36.35 217.83-32.2 203.63-32.2Q201.78-32.2 200.73-31.25 199.68-30.3 199.68-28.25L199.68-28.25 199.68-20.6 215.58-20.3 215.58-16.4 199.68-16.05 199.68-8.5Q199.68-6.8 200.26-5.95 200.83-5.1 201.76-4.8 202.68-4.5 203.73-4.5L203.73-4.5 217.83-4.5 217.83-0.35Q215.53-0.2 212.98-0.08 210.43 0.05 207.86 0.13 205.28 0.2 202.83 0.2ZM250.68 0L245.13 0 221.98-36.85 227.48-36.85 250.68 0ZM227.63 0L222.13 0 234.23-19.55 236.78-15.3 227.63 0ZM250.78-36.85L238.48-16.85 236.03-21.25 245.23-36.85 250.78-36.85ZM260.98 0L255.93 0 255.93-36.85 270.88-36.85Q272.53-36.85 274.28-36.43 276.03-36 277.5-34.77 278.98-33.55 279.88-31.15 280.78-28.75 280.78-24.8L280.78-24.8Q280.78-20.85 279.85-18.4 278.93-15.95 277.43-14.65 275.93-13.35 274.18-12.9 272.43-12.45 270.83-12.45L270.83-12.45Q270.03-12.45 268.65-12.5 267.28-12.55 265.78-12.65 264.28-12.75 262.98-12.85 261.68-12.95 260.98-13.05L260.98-13.05 260.98 0ZM260.98-32.35L260.98-16.95 270.13-16.95Q271.73-16.95 273-17.68 274.28-18.4 275-20.08 275.73-21.75 275.73-24.75L275.73-24.75Q275.73-27.7 275-29.35 274.28-31 273.08-31.68 271.88-32.35 270.43-32.35L270.43-32.35 260.98-32.35ZM308.13 0L294.18 0Q291.83 0 290.05-0.73 288.28-1.45 287.33-3.18 286.38-4.9 286.38-7.8L286.38-7.8 286.38-36.85 291.43-36.85 291.43-8.55Q291.43-6.95 291.98-6.08 292.53-5.2 293.43-4.9 294.33-4.6 295.38-4.6L295.38-4.6 308.13-4.6 308.13 0ZM326.37 0.3L326.37 0.3Q322.77 0.3 320.05-0.4 317.32-1.1 315.5-3 313.67-4.9 312.77-8.6 311.87-12.3 311.87-18.3L311.87-18.3Q311.87-24.3 312.77-28.03 313.67-31.75 315.52-33.73 317.37-35.7 320.07-36.43 322.77-37.15 326.37-37.15L326.37-37.15Q330.07-37.15 332.8-36.43 335.52-35.7 337.32-33.73 339.12-31.75 340.02-28.03 340.92-24.3 340.92-18.3L340.92-18.3Q340.92-12.3 340.02-8.6 339.12-4.9 337.3-3 335.47-1.1 332.75-0.4 330.02 0.3 326.37 0.3ZM326.37-4.2L326.37-4.2Q328.97-4.2 330.8-4.75 332.62-5.3 333.75-6.78 334.87-8.25 335.37-11.03 335.87-13.8 335.87-18.3L335.87-18.3Q335.87-23.05 335.35-25.9 334.82-28.75 333.72-30.2 332.62-31.65 330.8-32.15 328.97-32.65 326.37-32.65L326.37-32.65Q323.92-32.65 322.12-32.15 320.32-31.65 319.17-30.2 318.02-28.75 317.45-25.9 316.87-23.05 316.87-18.3L316.87-18.3Q316.87-13.8 317.35-11.03 317.82-8.25 318.95-6.78 320.07-5.3 321.9-4.75 323.72-4.2 326.37-4.2ZM352.32 0L347.27 0 347.27-36.85 362.02-36.85Q363.92-36.85 365.69-36.4 367.47-35.95 368.87-34.75 370.27-33.55 371.07-31.38 371.87-29.2 371.87-25.7L371.87-25.7Q371.87-22.85 371.27-20.95 370.67-19.05 369.69-17.93 368.72-16.8 367.55-16.23 366.37-15.65 365.22-15.35L365.22-15.35 372.57 0 367.47 0 360.67-14.65Q359.92-14.65 358.85-14.68 357.77-14.7 356.6-14.7 355.42-14.7 354.3-14.75 353.17-14.8 352.32-14.8L352.32-14.8 352.32 0ZM352.32-32.35L352.32-18.7 361.22-18.7Q362.42-18.7 363.42-18.98 364.42-19.25 365.19-20.03 365.97-20.8 366.42-22.18 366.87-23.55 366.87-25.7L366.87-25.7Q366.87-27.8 366.42-29.1 365.97-30.4 365.17-31.1 364.37-31.8 363.37-32.08 362.37-32.35 361.22-32.35L361.22-32.35 352.32-32.35ZM386.17 0.2L386.17 0.2Q384.92 0.2 383.52-0.03 382.12-0.25 380.84-0.98 379.57-1.7 378.77-3.2 377.97-4.7 377.97-7.25L377.97-7.25 377.97-29.15Q377.97-31.35 378.64-32.85 379.32-34.35 380.42-35.23 381.52-36.1 382.89-36.48 384.27-36.85 385.62-36.85L385.62-36.85Q388.87-36.8 391.59-36.73 394.32-36.65 396.67-36.55 399.02-36.45 401.17-36.35L401.17-36.35 401.17-32.2 386.97-32.2Q385.12-32.2 384.07-31.25 383.02-30.3 383.02-28.25L383.02-28.25 383.02-20.6 398.92-20.3 398.92-16.4 383.02-16.05 383.02-8.5Q383.02-6.8 383.59-5.95 384.17-5.1 385.09-4.8 386.02-4.5 387.07-4.5L387.07-4.5 401.17-4.5 401.17-0.35Q398.87-0.2 396.32-0.08 393.77 0.05 391.19 0.13 388.62 0.2 386.17 0.2ZM412.51 0L407.46 0 407.46-36.85 422.21-36.85Q424.12-36.85 425.89-36.4 427.67-35.95 429.06-34.75 430.46-33.55 431.26-31.38 432.06-29.2 432.06-25.7L432.06-25.7Q432.06-22.85 431.46-20.95 430.87-19.05 429.89-17.93 428.92-16.8 427.74-16.23 426.56-15.65 425.42-15.35L425.42-15.35 432.76 0 427.67 0 420.87-14.65Q420.12-14.65 419.04-14.68 417.96-14.7 416.79-14.7 415.62-14.7 414.49-14.75 413.37-14.8 412.51-14.8L412.51-14.8 412.51 0ZM412.51-32.35L412.51-18.7 421.42-18.7Q422.62-18.7 423.62-18.98 424.62-19.25 425.39-20.03 426.17-20.8 426.62-22.18 427.06-23.55 427.06-25.7L427.06-25.7Q427.06-27.8 426.62-29.1 426.17-30.4 425.37-31.1 424.56-31.8 423.56-32.08 422.56-32.35 421.42-32.35L421.42-32.35 412.51-32.35Z" opacity="1" transform="matrix(1,0,0,1,0,0)" fill="#6d285f" class="undefined-text-0" data-fill-palette-color="primary" id="text-0"></path></svg></g></svg></g></svg></g></svg></g><g><svg viewBox="0 0 79.29173513708491 79.29173513708491" height="79.29173513708491" width="79.29173513708491"><g><svg></svg></g><g id="icon-0"><svg viewBox="0 0 79.29173513708491 79.29173513708491" height="79.29173513708491" width="79.29173513708491"><g><rect width="72.09674435612722" height="72.09674435612722" x="3.597495390478848" y="3.597495390478848" fill="#ef85d1" data-fill-palette-color="accent"></rect><rect width="72.09674435612722" height="72.09674435612722" x="7.1949907809577" y="-4.440892098500626e-15" fill="#ef85d1" opacity="0.5" data-fill-palette-color="accent"></rect></g><g transform="matrix(1,0,0,1,10.278558258511005,14.221571138452735)"><svg viewBox="0 0 58.7346186200629 50.848592860179444" height="50.848592860179444" width="58.7346186200629"><g><svg xmlns="http://www.w3.org/2000/svg" viewBox="5.964998722076416 9.624751091003418 88.07000732421875 76.24525451660156" xml:space="preserve" x="0" y="0" height="50.848592860179444" width="58.7346186200629" class="icon-x-0" data-fill-palette-color="background" id="x-0"><path d="M56.514 71.866a1 1 0 0 1-1.001-1.001V14.513a1 1 0 1 1 2 0v56.353a1 1 0 0 1-0.999 1zM18.875 43.261a0.667 0.667 0 0 1-0.648-0.83c0.056-0.223 0.117-0.447 0.184-0.672a0.668 0.668 0 0 1 1.279 0.38 14.44 14.44 0 0 0-0.168 0.615 0.668 0.668 0 0 1-0.647 0.507zM18.475 50.814a0.667 0.667 0 0 1-0.666-0.628 88.87 88.87 0 0 1-0.065-1.273 0.666 0.666 0 0 1 0.638-0.694c0.37-0.016 0.679 0.27 0.695 0.637 0.019 0.42 0.041 0.838 0.065 1.256a0.668 0.668 0 0 1-0.628 0.703l-0.039-0.001z m-0.092-3.793h-0.021a0.668 0.668 0 0 1-0.646-0.688c0.014-0.433 0.039-0.866 0.079-1.303a0.668 0.668 0 0 1 1.329 0.121c-0.038 0.41-0.061 0.818-0.074 1.224a0.669 0.669 0 0 1-0.667 0.646zM30.726 69.043a0.668 0.668 0 0 1-0.022-1.333c0.41-0.015 0.811-0.047 1.192-0.101a0.665 0.665 0 1 1 0.182 1.32c-0.426 0.06-0.874 0.098-1.33 0.112-0.006 0.002-0.014 0.002-0.022 0.002z m-2.522-0.141a0.604 0.604 0 0 1-0.094-0.007 16.028 16.028 0 0 1-1.301-0.24 0.666 0.666 0 1 1 0.299-1.299c0.39 0.089 0.789 0.163 1.188 0.219a0.667 0.667 0 0 1-0.092 1.327z m6.216-0.633a0.666 0.666 0 0 1-0.279-1.272c0.337-0.156 0.663-0.349 0.967-0.574 0.295-0.221 0.713-0.157 0.932 0.139s0.157 0.713-0.139 0.934c-0.377 0.279-0.782 0.52-1.202 0.713a0.674 0.674 0 0 1-0.279 0.06z m-9.859-0.396a0.667 0.667 0 0 1-0.281-0.062 7.872 7.872 0 0 1-1.196-0.69 0.666 0.666 0 1 1 0.766-1.092c0.311 0.219 0.645 0.411 0.993 0.573a0.665 0.665 0 0 1-0.282 1.271z m12.66-2.09a0.667 0.667 0 0 1-0.552-1.041c0.21-0.311 0.41-0.646 0.612-1.025a0.666 0.666 0 1 1 1.178 0.625c-0.223 0.422-0.448 0.798-0.685 1.148a0.662 0.662 0 0 1-0.553 0.293z m-15.541-0.315a0.667 0.667 0 0 1-0.54-0.273c-0.257-0.354-0.5-0.738-0.721-1.143a0.667 0.667 0 0 1 1.171-0.64c0.194 0.355 0.406 0.69 0.629 0.997a0.669 0.669 0 0 1-0.146 0.933 0.677 0.677 0 0 1-0.393 0.126z m17.22-3.082a0.667 0.667 0 0 1-0.622-0.909c0.153-0.391 0.298-0.784 0.441-1.174a0.667 0.667 0 0 1 1.252 0.459c-0.146 0.398-0.294 0.799-0.45 1.197a0.665 0.665 0 0 1-0.621 0.427z m-18.878-0.317a0.666 0.666 0 0 1-0.634-0.462 19.913 19.913 0 0 1-0.36-1.259 0.668 0.668 0 0 1 0.482-0.81c0.355-0.09 0.72 0.126 0.81 0.483 0.102 0.398 0.213 0.791 0.337 1.175a0.667 0.667 0 0 1-0.635 0.873z m20.191-3.248a0.668 0.668 0 0 1-0.629-0.891l0.422-1.191a0.667 0.667 0 0 1 1.257 0.446l-0.422 1.193a0.666 0.666 0 0 1-0.628 0.443z m-21.044-0.447a0.668 0.668 0 0 1-0.658-0.562 44.304 44.304 0 0 1-0.185-1.273 0.667 0.667 0 0 1 0.576-0.747c0.36-0.041 0.699 0.21 0.747 0.576 0.054 0.413 0.113 0.823 0.179 1.232a0.667 0.667 0 0 1-0.659 0.774z m22.337-3.121a0.667 0.667 0 0 1-0.622-0.908c0.155-0.399 0.315-0.797 0.482-1.192a0.667 0.667 0 0 1 1.229 0.521c-0.162 0.382-0.316 0.767-0.467 1.153a0.667 0.667 0 0 1-0.622 0.426z m-22.782-0.65a0.667 0.667 0 0 1-0.664-0.611 77.707 77.707 0 0 1-0.096-1.272 0.665 0.665 0 0 1 0.619-0.71c0.369-0.012 0.686 0.251 0.711 0.619 0.028 0.418 0.06 0.836 0.095 1.252a0.667 0.667 0 0 1-0.609 0.72c-0.019 0.002-0.038 0.002-0.056 0.002z m24.338-2.811a0.666 0.666 0 0 1-0.587-0.981c0.204-0.38 0.418-0.758 0.646-1.131a0.666 0.666 0 0 1 1.139 0.693c-0.214 0.352-0.416 0.706-0.607 1.066a0.67 0.67 0 0 1-0.591 0.353z m2.136-3.125a0.67 0.67 0 0 1-0.487-1.124c0.304-0.323 0.63-0.634 0.969-0.923a0.667 0.667 0 0 1 0.866 1.013c-0.302 0.259-0.592 0.535-0.864 0.823a0.655 0.655 0 0 1-0.484 0.211z m3.017-2.274a0.667 0.667 0 0 1-0.295-1.266c0.43-0.211 0.861-0.381 1.284-0.504a0.667 0.667 0 0 1 0.374 1.28 6.73 6.73 0 0 0-1.069 0.42 0.658 0.658 0 0 1-0.294 0.07zM52.531 46.108a0.66 0.66 0 0 1-0.303-0.073 2.817 2.817 0 0 0-0.502-0.198 0.667 0.667 0 0 1 0.371-1.281c0.255 0.073 0.502 0.172 0.737 0.293a0.665 0.665 0 0 1-0.303 1.259zM60.064 49.858a0.667 0.667 0 0 1-0.517-0.246 11.37 11.37 0 0 1-0.429-0.561 0.667 0.667 0 1 1 1.082-0.781c0.122 0.171 0.25 0.337 0.381 0.499a0.668 0.668 0 0 1-0.517 1.089zM66.333 56.219a0.665 0.665 0 0 1-0.55-0.287 10.959 10.959 0 0 0-0.875-1.101 0.666 0.666 0 1 1 0.992-0.89c0.375 0.417 0.695 0.821 0.98 1.232a0.669 0.669 0 0 1-0.547 1.046z m-3.075-3.234a0.667 0.667 0 0 1-0.441-0.167l-0.228-0.2c-0.298-0.266-0.598-0.529-0.893-0.797a0.666 0.666 0 1 1 0.895-0.989c0.292 0.264 0.587 0.525 0.881 0.785l0.228 0.201a0.668 0.668 0 0 1-0.442 1.167zM75.17 68.259a0.668 0.668 0 0 1-0.051-1.332c0.43-0.033 0.869-0.121 1.308-0.261a0.665 0.665 0 0 1 0.837 0.433 0.665 0.665 0 0 1-0.432 0.837 7.094 7.094 0 0 1-1.609 0.321l-0.053 0.002z m-2.899-0.529a0.696 0.696 0 0 1-0.284-0.062 7.34 7.34 0 0 1-1.392-0.867 0.667 0.667 0 1 1 0.826-1.047c0.362 0.285 0.744 0.522 1.135 0.707a0.666 0.666 0 0 1-0.285 1.269z m6.955-1.196a0.666 0.666 0 0 1-0.422-1.184c0.354-0.288 0.691-0.609 0.999-0.956a0.666 0.666 0 1 1 0.995 0.888c-0.355 0.398-0.743 0.77-1.151 1.102a0.666 0.666 0 0 1-0.421 0.15z m-10.103-1.868a0.667 0.667 0 0 1-0.596-0.366 9.551 9.551 0 0 1-0.591-1.485 0.668 0.668 0 0 1 1.273-0.398c0.15 0.483 0.316 0.902 0.508 1.282a0.667 0.667 0 0 1-0.594 0.967z m12.788-1.656a0.67 0.67 0 0 1-0.61-0.937c0.188-0.428 0.338-0.865 0.444-1.299a0.667 0.667 0 1 1 1.296 0.319 9.151 9.151 0 0 1-0.52 1.519 0.665 0.665 0 0 1-0.61 0.398z m-14.019-2.629a0.667 0.667 0 0 1-0.652-0.528c-0.089-0.42-0.198-0.916-0.337-1.409a0.665 0.665 0 0 1 0.463-0.822c0.354-0.1 0.723 0.108 0.821 0.463 0.148 0.529 0.264 1.051 0.357 1.491a0.666 0.666 0 0 1-0.652 0.805z m14.64-1.74a0.666 0.666 0 0 1-0.657-0.561 5.99 5.99 0 0 0-0.36-1.289 0.669 0.669 0 0 1 1.238-0.5c0.204 0.507 0.352 1.036 0.438 1.576a0.667 0.667 0 0 1-0.659 0.774z m-1.952-3.967a0.668 0.668 0 0 1-0.531-0.263c-0.306-0.4-0.616-0.778-0.917-1.143a0.666 0.666 0 0 1 1.028-0.85c0.312 0.378 0.633 0.769 0.949 1.184a0.668 0.668 0 0 1-0.529 1.072z m-2.716-3.549a0.665 0.665 0 0 1-0.578-0.334 6.081 6.081 0 0 1-0.644-1.533 0.666 0.666 0 1 1 1.29-0.334c0.102 0.393 0.269 0.786 0.509 1.203a0.667 0.667 0 0 1-0.577 0.998zM77.463 46.792a0.667 0.667 0 0 1-0.633-0.878c0.072-0.217 0.155-0.44 0.252-0.671a0.666 0.666 0 0 1 1.23 0.515 8.398 8.398 0 0 0-0.217 0.577 0.664 0.664 0 0 1-0.632 0.457zM81.4 41.597a0.666 0.666 0 0 1-0.518-0.246 23.028 23.028 0 0 0-0.846-0.983 0.666 0.666 0 1 1 0.987-0.896c0.299 0.33 0.595 0.673 0.893 1.039a0.667 0.667 0 0 1-0.516 1.086z m-2.755-2.896a0.667 0.667 0 0 1-0.453-0.179c-0.31-0.287-0.634-0.581-0.978-0.888a0.668 0.668 0 0 1 0.889-0.995c0.351 0.313 0.679 0.613 0.995 0.905a0.667 0.667 0 0 1-0.453 1.157zM77.869 41.75a0.665 0.665 0 0 1-0.633-0.876c0.123-0.374 0.382-0.826 0.768-1.341a0.668 0.668 0 0 1 1.069 0.799c-0.287 0.384-0.495 0.733-0.57 0.96a0.672 0.672 0 0 1-0.634 0.458z m2.525-3.064a0.666 0.666 0 0 1-0.409-1.195c0.736-0.571 1.288-0.776 1.756-0.657a0.667 0.667 0 0 1-0.27 1.305c-0.045 0.014-0.252 0.083-0.67 0.407a0.663 0.663 0 0 1-0.407 0.14z" fill="#ffffff" data-fill-palette-color="background"></path><path d="M92.701 85.87c-0.124 0-0.248-0.017-0.37-0.052L56.389 75.451l-48.87 8.178a1.333 1.333 0 0 1-1.554-1.317V19.186c0-0.652 0.471-1.208 1.114-1.316l49.168-8.227c0.196-0.033 0.397-0.021 0.59 0.034L93.07 20.128c0.571 0.165 0.965 0.688 0.965 1.281v63.126a1.334 1.334 0 0 1-1.334 1.335zM56.467 72.751c0.126 0 0.249 0.019 0.37 0.053l34.53 9.96v-60.35l-34.979-10.09-47.755 7.991v60.422l47.614-7.967c0.073-0.012 0.147-0.019 0.22-0.019z" fill="#ffffff" data-fill-palette-color="background"></path></svg></g></svg></g></svg></g></svg></g></svg></g></svg><rect width="395.52" height="64.93595679773242" fill="none" stroke="none" visibility="hidden"></rect></g></svg></g></svg>